<svg id="Layer_1" data-name="Layer 1" xmlns="http://www.w3.org/2000/svg" viewBox="0 0 183.02 71.6"><defs><style>.cls-1{fill:#009fe3;}.cls-2{fill:#fc0;}.cls-3{fill:#76b82a;}</style></defs><title>XPO_LOGO</title><path class="cls-1" d="M61.29,4.68a2.55,2.55,0,0,0-4.67,2.07,2.74,2.74,0,0,1-.39,2.88L35.92,34.18a2.55,2.55,0,0,0,0,3.25L56.23,62a2.75,2.75,0,0,1,.6,2.14A2.55,2.55,0,0,0,59,67l.35,0a2.56,2.56,0,0,0,2.53-2.21,7.88,7.88,0,0,0-1.73-6.09L41.2,35.8l19-22.92A7.84,7.84,0,0,0,61.29,4.68ZM8,5.11a2.75,2.75,0,0,1,2,1L26.28,25.77a2.54,2.54,0,0,0,2,.93,2.56,2.56,0,0,0,2-4.18L13.94,2.85A7.87,7.87,0,0,0,8.27,0,2.55,2.55,0,1,0,8,5.11Zm26.19,21a2.53,2.53,0,0,0,2-.92L52,6.1a2.75,2.75,0,0,1,2-1A2.55,2.55,0,1,0,53.7,0,7.89,7.89,0,0,0,48,2.85L32.23,22a2.56,2.56,0,0,0,2,4.18ZM54.72,66.41A2.63,2.63,0,0,1,52,65.5L36.16,46.4a2.55,2.55,0,0,0-3.93,3.25L48,68.75A7.84,7.84,0,0,0,54.1,71.6a7.72,7.72,0,0,0,1.78-.22,2.55,2.55,0,0,0-1.16-5ZM26.28,45.83,10,65.5a2.76,2.76,0,0,1-2.13,1,2.79,2.79,0,0,1-.62-.09,2.55,2.55,0,0,0-1.15,5,7.71,7.71,0,0,0,1.77.22,7.86,7.86,0,0,0,6.07-2.85L30.21,49.08a2.55,2.55,0,0,0-3.93-3.25ZM5.14,64.11A2.75,2.75,0,0,1,5.74,62L26.05,37.43a2.55,2.55,0,0,0,0-3.25L5.74,9.63a2.74,2.74,0,0,1-.39-2.88A2.55,2.55,0,1,0,.68,4.68a7.82,7.82,0,0,0,1.13,8.2l19,22.92-19,22.92A7.88,7.88,0,0,0,.08,64.81,2.56,2.56,0,0,0,2.61,67,2.07,2.07,0,0,0,3,67,2.55,2.55,0,0,0,5.14,64.11Z"/><path class="cls-2" d="M84.59,0H75.21a2.55,2.55,0,1,0,0,5.1h9.38A20.94,20.94,0,0,1,84.6,47l-1.29,0a2.55,2.55,0,0,0,0,5.1h.06l1.24,0A26,26,0,0,0,84.59,0Zm0,36.35h-.16l-4.33.09a2.55,2.55,0,0,0-5.1.07v2.54a2.54,2.54,0,0,0,2.55,2.55h0l7-.14a15.42,15.42,0,0,0,0-30.83h-7A2.56,2.56,0,0,0,75,13.18v2.7a2.55,2.55,0,1,0,5.1,0v-.14h4.49a10.31,10.31,0,1,1,0,20.61Zm-7,10.78A2.55,2.55,0,0,0,75,49.69v14a2.77,2.77,0,0,1-2.77,2.77,2.55,2.55,0,0,0,0,5.1,7.88,7.88,0,0,0,7.87-7.87v-14A2.55,2.55,0,0,0,77.55,47.13ZM70.7,5.57a2.55,2.55,0,0,0-2.83-4.25,8.14,8.14,0,0,0-1.2,1,7.81,7.81,0,0,0-2.31,5.57V63.73a2.77,2.77,0,0,1-1,2.13,2.54,2.54,0,0,0-.32,3.59,2.51,2.51,0,0,0,2,.92,2.59,2.59,0,0,0,1.63-.59,7.86,7.86,0,0,0,2.83-6.05V7.87a2.78,2.78,0,0,1,.81-2A2.72,2.72,0,0,1,70.7,5.57Z"/><path class="cls-3" d="M146.78,69.14a2.55,2.55,0,0,1-2.54,2.33H144A36,36,0,0,1,111.42,35.8,36,36,0,0,1,144,.14a2.56,2.56,0,0,1,.46,5.09A30.89,30.89,0,0,0,116.52,35.8a30.9,30.9,0,0,0,28,30.58A2.54,2.54,0,0,1,146.78,69.14Zm-2.2-53.23a2.55,2.55,0,0,0-.67-5.06,25.17,25.17,0,0,0,0,49.9,1.84,1.84,0,0,0,.33,0,2.56,2.56,0,0,0,.34-5.09,20.06,20.06,0,0,1,0-39.78Zm5.28,39.78a2.56,2.56,0,0,0,.33,5.09,2,2,0,0,0,.34,0,25.17,25.17,0,0,0,0-49.9,2.55,2.55,0,0,0-.67,5.06,20.07,20.07,0,0,1,0,39.78ZM150.42.14A2.55,2.55,0,0,0,150,5.23,30.89,30.89,0,0,1,177.92,35.8,30.91,30.91,0,0,1,150,66.38a2.55,2.55,0,0,0,.22,5.09h.23A36,36,0,0,0,183,35.8,36,36,0,0,0,150.42.14Z"/></svg>